<svg width="20" height="16" viewBox="0 0 20 16" fill="none" xmlns="http://www.w3.org/2000/svg">
<path fill-rule="evenodd" clip-rule="evenodd" d="M2.41675 8C2.41675 7.19329 2.9352 5.70472 4.18615 4.40565C5.40728 3.13755 7.29896 2.08334 10.0001 2.08334C12.7012 2.08334 14.5929 3.13755 15.814 4.40565C17.065 5.70472 17.5834 7.19329 17.5834 8C17.5834 8.80671 17.065 10.2953 15.814 11.5944C14.5929 12.8624 12.7012 13.9167 10.0001 13.9167C7.29896 13.9167 5.40728 12.8624 4.18615 11.5944C2.9352 10.2953 2.41675 8.80671 2.41675 8ZM10.0001 0.583336C6.86787 0.583336 4.59288 1.82078 3.10567 3.36519C1.64829 4.87862 0.916748 6.72338 0.916748 8C0.916748 9.27662 1.64829 11.1214 3.10567 12.6348C4.59288 14.1792 6.86787 15.4167 10.0001 15.4167C13.1323 15.4167 15.4073 14.1792 16.8945 12.6348C18.3519 11.1214 19.0834 9.27662 19.0834 8C19.0834 6.72338 18.3519 4.87862 16.8945 3.36519C15.4073 1.82078 13.1323 0.583336 10.0001 0.583336ZM8.25 8C8.25 7.0335 9.03351 6.25 10 6.25C10.9665 6.25 11.75 7.0335 11.75 8C11.75 8.9665 10.9665 9.75 10 9.75C9.03351 9.75 8.25 8.9665 8.25 8ZM10 4.75C8.20508 4.75 6.75 6.20508 6.75 8C6.75 9.79493 8.20508 11.25 10 11.25C11.7949 11.25 13.25 9.79493 13.25 8C13.25 6.20508 11.7949 4.75 10 4.75Z" fill="#7F8084"/>
</svg>
